:SAMPLES-PER-SECOND 24
:FULLY-SPECIFIED
:DEGREES
672
root  -5.14669 39.3134 31.3477 179.589 -55.7444 176.266
RightUpLeg  -11.7552 -15.9256 -22.5376
RightLeg  20.0101 6.42189 2.38424
RightFoot  15.0489 -1.37835 6.31915
RightToes  -1.74623e-010 0 -2.59999e-017
Spine  2.58064 -3.04017 -10.6928
Spine1  15.3119 -6.29027 7.64714
HEad  -16.0865 -31.5939 15.0067
LeftShoulder1  1.26271 -1.68351 -17.7131
LeftArm  35.0717 -19.5673 -61.0689
LeftForeArm  142.56 -72.637 -144.917
LeftHand  0.337043 9.8623 9.6517
RightShoulder  3.03381 5.33616 28.3759
RightArm  -3.81975 -24.6147 33.5353
RightForeArm  157.821 70.1154 151.572
RightHand  -0.775282 -11.503 12.9129
LeftUpLeg  0.876041 5.54506 9.51241
LeftLeg  12.1843 4.19443 -0.226886
LeftFoot  -7.33343 0.54209 -14.1841
LeftToes  -6.27559e-011 -2.10356e-011 8.24929e-012
673
root  -4.85297 39.202 30.9455 178.697 -53.9721 176.764
RightUpLeg  -11.5427 -15.239 -22.3005
RightLeg  19.6303 6.14802 2.22699
RightFoot  14.6468 -1.42918 6.6279
RightToes  -1.74623e-010 0 -2.59999e-017
Spine  2.88284 -2.96398 -10.464
Spine1  15.4269 -6.18681 7.39318
HEad  -16.141 -30.5238 13.3557
LeftShoulder1  1.36676 -1.92535 -18.6113
LeftArm  33.5809 -15.6133 -57.7394
LeftForeArm  143.064 -72.8358 -144.588
LeftHand  0.351394 10.1182 9.50772
RightShoulder  2.93655 5.20187 27.7695
RightArm  -5.43773 -23.3039 34.8319
RightForeArm  155.318 66.7238 155.576
RightHand  -0.962885 -12.1715 14.6472
LeftUpLeg  1.68557 5.97131 10.5874
LeftLeg  12.5353 5.07823 0.287021
LeftFoot  -7.66344 0.544977 -15.4709
LeftToes  -6.27559e-011 -2.10356e-011 8.24929e-012
674
root  -4.4698 39.0003 30.4034 178.346 -52.0817 176.694
RightUpLeg  -11.8776 -14.0259 -22.2442
RightLeg  20.5215 6.91359 2.65349
RightFoot  13.1023 -1.64368 8.00374
RightToes  -1.74623e-010 0 -2.59999e-017
Spine  3.08825 -2.90872 -10.2923
Spine1  15.8668 -5.99609 6.77003
HEad  -17.1586 -29.4199 12.7693
LeftShoulder1  1.51121 -2.18595 -20.1027
LeftArm  31.8106 -10.4654 -53.4365
LeftForeArm  142.229 -72.8147 -144.495
LeftHand  0.391392 10.2215 10.2348
RightShoulder  2.91183 5.15079 27.6804
RightArm  -8.09303 -20.1859 35.3416
RightForeArm  147.671 65.8376 155.679
RightHand  -0.886241 -12.0739 13.5732
LeftUpLeg  2.37064 6.62705 11.6879
LeftLeg  13.1299 5.66673 0.666379
LeftFoot  -7.88995 0.549111 -16.5719
LeftToes  -6.27559e-011 -2.10356e-011 8.24929e-012
675
root  -3.9162 38.5502 29.7475 178.576 -50.4175 176.101
RightUpLeg  -12.8881 -11.9698 -22.4351
RightLeg  22.9444 9.10789 4.00737
RightFoot  8.00462 -1.9325 11.7218
RightToes  -1.74623e-010 0 -2.59999e-017
Spine  3.99935 -2.63869 -10.4692
Spine1  15.5101 -5.56622 6.08319
HEad  -18.2807 -28.7395 12.917
LeftShoulder1  1.65198 -2.46194 -21.3121
LeftArm  30.0886 -5.32016 -49.7066
LeftForeArm  140.135 -73.2533 -143.186
LeftHand  0.407029 10.1984 10.6371
RightShoulder  2.9274 5.13901 27.9143
RightArm  -11.9234 -16.2148 35.8862
RightForeArm  136.829 68.6829 150.88
RightHand  -0.491449 -9.8764 10.767
LeftUpLeg  1.09034 9.11181 13.04
LeftLeg  17.1621 3.97809 0.97669
LeftFoot  -9.64492 0.306964 -16.7012
LeftToes  -6.27559e-011 -2.10356e-011 8.24929e-012
676
root  -3.23814 37.7984 29.0585 177.715 -49.3432 176.183
RightUpLeg  -14.0624 -11.3226 -21.8101
RightLeg  27.3202 11.0354 5.92402
RightFoot  0.377075 -1.54991 15.1736
RightToes  -1.74623e-010 0 -2.59999e-017
Spine  6.51595 -2.16604 -9.69445
Spine1  14.3231 -4.9297 5.27894
HEad  -19.8155 -28.2392 12.8075
LeftShoulder1  1.79646 -2.82276 -22.0629
LeftArm  28.1625 -1.15353 -46.6758
LeftForeArm  140.701 -73.6384 -142.399
LeftHand  0.334526 9.85365 9.59995
RightShoulder  2.86447 5.02219 27.6318
RightArm  -16.1726 -12.2105 37.476
RightForeArm  119.84 74.0161 137.873
RightHand  -0.194686 -7.8652 7.01512
LeftUpLeg  -1.07724 10.9007 15.1145
LeftLeg  23.7357 2.1998 1.36675
LeftFoot  -12.2583 -0.0620064 -16.7554
LeftToes  -6.27559e-011 -2.10356e-011 8.24929e-012
677
root  -2.49797 36.9122 28.3853 176.807 -48.0765 176.459
RightUpLeg  -17.2055 -12.6911 -20.1257
RightLeg  34.4183 11.4747 8.11583
RightFoot  -5.98734 -0.683539 13.6827
RightToes  -1.74623e-010 0 -2.59999e-017
Spine  8.42918 -1.71225 -7.96623
Spine1  14.4687 -3.95746 3.58632
HEad  -23.0184 -27.6774 13.1989
LeftShoulder1  1.90383 -3.04264 -22.7921
LeftArm  26.1209 0.650932 -43.5906
LeftForeArm  140.02 -73.978 -141.459
LeftHand  0.303039 9.78197 8.95998
RightShoulder  2.93329 5.0857 28.2025
RightArm  -19.322 -6.29329 37.1388
RightForeArm  78.4312 78.7841 99.8852
RightHand  -0.0296206 -5.5103 -0.247117
LeftUpLeg  -3.10584 12.0048 17.701
LeftLeg  29.8352 1.43944 1.25679
LeftFoot  -14.3528 -0.362637 -16.9428
LeftToes  -6.27559e-011 -2.10356e-011 8.24929e-012
678
root  -1.74667 36.0819 27.7164 177.493 -46.7533 175.802
RightUpLeg  -22.4077 -14.726 -18.6324
RightLeg  42.9139 11.3097 10.7961
RightFoot  -9.3112 -0.229634 9.61877
RightToes  -1.74623e-010 0 -2.59999e-017
Spine  8.56073 -1.44297 -6.78268
Spine1  15.795 -2.93307 1.31584
HEad  -26.557 -27.4778 13.7964
LeftShoulder1  1.94524 -3.02321 -23.553
LeftArm  24.0507 0.309677 -41.4905
LeftForeArm  134.493 -75.2728 -136.829
LeftHand  0.369303 10.6609 8.99949
RightShoulder  3.19868 5.4513 29.8105
RightArm  -20.4224 1.94697 34.8175
RightForeArm  23.5542 73.157 39.8374
RightHand  -0.252613 -2.50176 -10.8533
LeftUpLeg  -5.19173 13.5421 19.5537
LeftLeg  34.3762 0.46954 0.731273
LeftFoot  -16.0965 -0.641303 -17.6064
LeftToes  -6.27559e-011 -2.10356e-011 8.24929e-012
679
root  -1.16836 35.7659 27.0367 177.866 -47.5566 175.247
RightUpLeg  -24.2147 -16.728 -17.919
RightLeg  47.4055 11.2152 12.4615
RightFoot  -10.3734 -0.138652 8.25766
RightToes  -1.74623e-010 0 -2.59999e-017
Spine  8.28671 -1.60994 -5.78709
Spine1  16.9198 -2.55607 -0.165963
HEad  -27.6485 -28.6516 13.8026
LeftShoulder1  1.95591 -3.01195 -23.7793
LeftArm  22.4566 -0.706132 -42.5032
LeftForeArm  129.55 -77.345 -128.098
LeftHand  0.319335 11.2013 7.28275
RightShoulder  3.32789 5.68259 30.3271
RightArm  -20.056 6.71419 34.4767
RightForeArm  21.6535 61.0351 18.4616
RightHand  0.491815 -8.80308 -15.9322
LeftUpLeg  -5.59803 11.8984 20.4171
LeftLeg  34.4329 0.58958 0.840347
LeftFoot  -15.4763 -0.597465 -19.2122
LeftToes  -6.27559e-011 -2.10356e-011 8.24929e-012
680
root  -0.890382 36.4877 26.3666 177.806 -50.8354 174.896
RightUpLeg  -19.899 -18.3453 -17.7404
RightLeg  43.2691 11.0414 10.6533
RightFoot  -10.0539 -0.165499 8.71868
RightToes  -1.74623e-010 0 -2.59999e-017
Spine  7.43089 -2.12071 -4.99854
Spine1  17.4068 -2.73268 -0.807756
HEad  -25.5533 -31.213 13.9675
LeftShoulder1  1.92911 -3.0422 -23.2028
LeftArm  22.2411 -0.709259 -46.1677
LeftForeArm  130.631 -78.4599 -122.957
LeftHand  0.185552 10.4157 5.31954
RightShoulder  3.29823 5.67939 30.0092
RightArm  -18.5621 2.61125 35.5746
RightForeArm  40.5977 57.2402 13.8298
RightHand  0.111532 -17.885 -2.85993
LeftUpLeg  -3.02134 7.64453 19.9513
LeftLeg  26.615 3.40275 2.14799
LeftFoot  -9.27885 0.407566 -18.8621
LeftToes  -6.27559e-011 -2.10356e-011 8.24929e-012
681
root  -0.845829 37.9688 25.9403 -179.573 -54.2911 173.152
RightUpLeg  -14.3998 -19.0581 -18.0423
RightLeg  32.9816 10.1435 6.79096
RightFoot  -5.86144 -0.487981 9.3409
RightToes  -1.74623e-010 0 -2.59999e-017
Spine  5.30053 -2.67785 -5.68423
Spine1  16.5031 -3.12057 -0.725116
HEad  -22.3795 -33.7983 14.6713
LeftShoulder1  1.85044 -2.92842 -22.4594
LeftArm  23.3632 1.16315 -49.673
LeftForeArm  133.782 -78.0342 -126.069
LeftHand  0.188637 9.71819 6.16942
RightShoulder  3.3623 5.70204 30.6273
RightArm  -13.8967 -7.16961 34.5986
RightForeArm  48.6277 61.0071 15.6757
RightHand  -0.90656 -15.6295 8.92331
LeftUpLeg  -0.160113 7.23176 17.4676
LeftLeg  15.3031 5.71058 2.39858
LeftFoot  -0.538745 1.3642 -14.3343
LeftToes  -6.27559e-011 -2.10356e-011 8.24929e-012
